<?xml version="1.0" encoding="UTF-8"?>
<svg version="1.1" xmlns="http://www.w3.org/2000/svg" width="800" height="240">
<path d="M0 0 C2.8433083 0.06456143 5.68330608 0.04351545 8.52705669 0.021348 C11.28091738 0.00820091 14.03278961 0.04037948 16.7862339 0.08686638 C18.72634208 0.11421551 20.66680438 0.11101133 22.60710144 0.10713196 C31.20442811 0.42910234 31.20442811 0.42910234 34.76593018 3.46524048 C36.54970685 5.73058907 38.0220732 7.98155686 39.4440918 10.48590088 C40.19432617 11.56871338 40.94456055 12.65152588 41.7175293 13.76715088 C42.41104492 14.82933838 43.10456055 15.89152588 43.8190918 16.98590088 C48.15791062 23.57771943 52.56806944 30.11963389 57.00665283 36.64459229 C58.10224907 38.2552632 59.19676931 39.86666585 60.29125977 41.47808838 C60.98493652 42.49773682 61.67861328 43.51738525 62.39331055 44.56793213 C63.40143799 46.05800781 63.40143799 46.05800781 64.42993164 47.57818604 C65.76827111 49.51026157 67.14388037 51.41706464 68.5559082 53.29595947 C69.53116455 54.60234375 69.53116455 54.60234375 70.52612305 55.93511963 C71.11240479 56.69526367 71.69868652 57.45540771 72.30273438 58.23858643 C73.4440918 60.48590088 73.4440918 60.48590088 73.33984375 62.93560791 C72.27959771 65.95423156 70.85649911 68.21157637 69.0300293 70.84136963 C67.9447998 72.42184082 67.9447998 72.42184082 66.83764648 74.03424072 C66.44830933 74.5946405 66.05897217 75.15504028 65.65783691 75.73242188 C63.99016969 78.14167521 62.35203931 80.5704498 60.71246338 82.99887085 C59.39908684 84.94361755 58.0822947 86.8860075 56.7644043 88.82769775 C56.32 89.48246094 55.8755957 90.13722412 55.41772461 90.81182861 C54.52226168 92.1308695 53.62675423 93.44988017 52.73120117 94.76885986 C51.84222215 96.07841186 50.95506793 97.38920447 50.06974792 98.70123291 C49.17731439 100.01021015 48.27167504 101.31027901 47.35322571 102.60113525 C45.03822643 105.89383632 43.1497734 109.00307358 41.64013672 112.74176025 C39.66094985 117.22854032 37.71403101 120.8580351 33.4440918 123.48590088 C24.82679823 125.97485404 15.69715388 125.65590166 6.8046875 125.44146729 C3.22398009 125.35595785 -0.34003259 125.40647109 -3.92016125 125.49311161 C-26.68250857 125.96133079 -26.68250857 125.96133079 -32.72509766 120.33721924 C-35.27124307 117.2608238 -37.07846886 113.954212 -38.70724487 110.31988525 C-39.85002358 107.85030961 -41.36839359 105.75185095 -42.98168945 103.56793213 C-43.94630661 102.14636547 -44.90857018 100.72319876 -45.8684082 99.29840088 C-51.13793634 91.53527829 -56.48879371 83.83301437 -61.88720703 76.15899658 C-62.96871071 74.62001259 -64.04501105 73.07735305 -65.11499023 71.53033447 C-66.01713459 70.250335 -66.94679786 68.98882633 -67.91479492 67.75787354 C-69.08325195 66.22418213 -69.08325195 66.22418213 -70.5559082 63.48590088 C-69.50985566 60.06594105 -67.92566974 57.3284919 -65.8605957 54.43121338 C-65.31757812 53.66309326 -64.77456055 52.89497314 -64.21508789 52.10357666 C-63.62630859 51.28099365 -63.0375293 50.45841064 -62.4309082 49.61090088 C-61.162184 47.81958472 -59.89397552 46.02790322 -58.6262207 44.23590088 C-57.96138672 43.29875244 -57.29655273 42.361604 -56.61157227 41.39605713 C-52.5068164 35.58504882 -48.4660705 29.72927614 -44.41479492 23.88092041 C-43.14899992 22.05789864 -41.85497747 20.25420196 -40.53564453 18.46954346 C-38.99254979 16.14395943 -37.98645638 14.25134541 -36.92578125 11.72686768 C-29.93382957 -3.14183019 -14.19694479 -0.43202772 0 0 Z M15.4440918 29.48590088 C13.54301058 31.78062492 11.7628129 34.0831892 10.0065918 36.48590088 C9.48178223 37.1997998 8.95697266 37.91369873 8.41625977 38.64923096 C7.31347524 40.15661172 6.21460991 41.6668664 5.11938477 43.17974854 C4.01224289 44.70380307 2.89679676 46.22186321 1.77270508 47.73345947 C0.18607611 49.86710397 -1.37513497 52.01719365 -2.9309082 54.17340088 C-3.42518311 54.83146729 -3.91945801 55.48953369 -4.42871094 56.1675415 C-5.95988755 58.24364241 -5.95988755 58.24364241 -7.5559082 61.48590088 C-6.45816302 65.40321079 -4.36056308 68.45508814 -2.03637695 71.75933838 C-1.34350586 72.74933838 -0.65063477 73.73933838 0.06323242 74.75933838 C1.14894531 76.29461182 1.14894531 76.29461182 2.2565918 77.86090088 C2.96879883 78.87668213 3.68100586 79.89246338 4.41479492 80.93902588 C8.06545643 86.13978325 11.74188871 91.32172761 15.4440918 96.48590088 C25.60018802 90.7310451 35.66457092 84.83321812 45.6940918 78.86090088 C47.77432651 77.62421445 49.85474494 76.3878375 51.93518066 75.15148926 C53.90638718 73.97857087 55.87546825 72.80214308 57.84448242 71.62554932 C60.10449422 70.27688091 62.37288299 68.95027723 64.65307617 67.63531494 C66.02689453 66.83819092 66.02689453 66.83819092 67.4284668 66.02496338 C68.21447266 65.57588623 69.00047852 65.12680908 69.81030273 64.66412354 C70.34945312 64.27531006 70.88860352 63.88649658 71.4440918 63.48590088 C71.4440918 62.82590088 71.4440918 62.16590088 71.4440918 61.48590088 C69.06787744 59.81696751 69.06787744 59.81696751 65.97924805 58.09918213 C65.11441803 57.59779221 65.11441803 57.59779221 64.2321167 57.08627319 C62.3274029 55.98359587 60.41704829 54.89109324 58.5065918 53.79840088 C55.85375396 52.26764593 53.20370903 50.73208159 50.5534668 49.19683838 C49.87907059 48.80715378 49.20467438 48.41746918 48.50984192 48.01597595 C43.98618048 45.39729485 39.49346886 42.73208784 35.0222168 40.02496338 C34.44447006 39.67546127 33.86672333 39.32595917 33.27146912 38.96586609 C30.52423045 37.30208277 27.78062482 35.63254622 25.04003906 33.95782471 C23.57908813 33.07260132 23.57908813 33.07260132 22.08862305 32.16949463 C21.23631104 31.64927734 20.38399902 31.12906006 19.50585938 30.59307861 C17.54046313 29.3281995 17.54046313 29.3281995 15.4440918 29.48590088 Z " fill="#3891CE" transform="translate(131.555908203125,57.51409912109375)"/>
<path d="M0 0 C0.66 0 1.32 0 2 0 C2 0.66 2 1.32 2 2 C2.72364746 2.27239502 3.44729492 2.54479004 4.19287109 2.82543945 C6.92778491 3.96978372 9.3661386 5.28177086 11.9140625 6.79296875 C12.83525879 7.33775879 13.75645508 7.88254883 14.70556641 8.44384766 C15.66897949 9.01925293 16.63239258 9.5946582 17.625 10.1875 C19.10299072 11.06607666 19.10299072 11.06607666 20.61083984 11.96240234 C37.52982411 22.05221843 37.52982411 22.05221843 44 27 C42.3517218 32.23693453 39.09783459 36.26684868 35.875 40.625 C35.33101563 41.36878906 34.78703125 42.11257812 34.2265625 42.87890625 C33.12474299 44.38489787 32.00939708 45.88109938 30.87985229 47.3664093 C28.94778757 49.97036964 28.94778757 49.97036964 27.41482544 52.84074402 C24.81160175 57.20402479 22.85572001 60.43129623 17.85324097 61.96435547 C14.01883869 62.27202935 10.27261892 62.24042251 6.4375 62.07421875 C5.03652084 62.05366839 3.63546191 62.03802631 2.234375 62.02705383 C-1.430596 61.98530767 -5.09067054 61.87752191 -8.75372314 61.75531006 C-12.50050605 61.64220309 -16.24809104 61.5924236 -19.99609375 61.53710938 C-27.3329474 61.41959322 -34.66578446 61.23220995 -42 61 C-37.78315264 53.52072658 -37.78315264 53.52072658 -35.546875 50.40625 C-34.87760986 49.46712769 -34.87760986 49.46712769 -34.19482422 48.5090332 C-33.47963623 47.51456177 -33.47963623 47.51456177 -32.75 46.5 C-31.68406335 45.00449927 -30.619008 43.5083701 -29.5546875 42.01171875 C-28.69955566 40.80974854 -28.69955566 40.80974854 -27.82714844 39.58349609 C-24.47831797 34.84841805 -21.18065255 30.07776604 -17.875 25.3125 C-15.86491066 22.42314546 -13.85364148 19.53461694 -11.84179688 16.64648438 C-10.67461761 14.96936041 -9.50905239 13.29111106 -8.34570312 11.61132812 C-6.94506312 9.59058495 -5.53651763 7.57565246 -4.125 5.5625 C-3.72651855 4.98346924 -3.32803711 4.40443848 -2.91748047 3.80786133 C-1.99521318 2.50162383 -1.00466721 1.24397635 0 0 Z " fill="#1C4E98" transform="translate(103,59)"/>
<path d="M0 0 C0.78375 0.598125 1.5675 1.19625 2.375 1.8125 C2.375 -0.1675 2.375 -2.1475 2.375 -4.1875 C6.005 -4.1875 9.635 -4.1875 13.375 -4.1875 C13.44483066 3.98432364 13.4979777 12.15602044 13.53043652 20.32806969 C13.54602331 24.1236063 13.56713188 27.9189372 13.60131836 31.71435547 C13.63416373 35.38428362 13.65190541 39.05401522 13.65963173 42.72407913 C13.66513047 44.11697097 13.67586686 45.50985333 13.69219017 46.90266037 C13.8262933 58.83086415 12.89973877 68.88456412 4.375 77.8125 C-2.4424779 83.92328812 -9.57768198 87.32871456 -18.75 88.0625 C-29.3937737 87.37580492 -37.36703003 83.80611738 -44.4375 75.8125 C-49.625 68.69821429 -49.625 68.69821429 -49.625 64.8125 C-39.05069339 63.7345367 -39.05069339 63.7345367 -35.703125 66.265625 C-34.73455419 67.50497905 -33.79648401 68.76878419 -32.890625 70.0546875 C-30.83080531 72.91554818 -28.97065667 73.75923771 -25.625 74.8125 C-18.19648366 75.65188038 -11.76737401 75.36350835 -5.625 70.8125 C-1.33874588 66.52624588 1.23046502 61.46230789 1.5625 55.375 C1.500625 54.529375 1.43875 53.68375 1.375 52.8125 C0.77171875 53.16183594 0.1684375 53.51117188 -0.453125 53.87109375 C-1.65195312 54.55365234 -1.65195312 54.55365234 -2.875 55.25 C-3.66390625 55.70246094 -4.4528125 56.15492188 -5.265625 56.62109375 C-12.22657731 60.13614417 -21.90602406 60.05114704 -29.36328125 58.09375 C-31.58053484 57.14404553 -33.57546022 56.08146149 -35.625 54.8125 C-36.24761719 54.461875 -36.87023437 54.11125 -37.51171875 53.75 C-44.36717222 49.46720043 -48.5662406 42.52109684 -50.625 34.8125 C-51.6406633 23.41581297 -50.73465574 14.65681144 -43.375 5.5625 C-32.08555908 -6.54711397 -14.09290388 -9.2742529 0 0 Z M-37.1875 15 C-40.50234082 20.70417052 -41.49225439 25.99995958 -40.0234375 32.45703125 C-37.97141279 38.40790292 -35.01144185 42.49776656 -29.625 45.8125 C-23.80407749 48.57078027 -17.50984718 48.96550692 -11.30859375 47.125 C-5.26354193 44.37203522 -1.43938724 40.06619633 1.25 34 C3.18354531 28.25429433 2.26151029 23.11742676 0.125 17.5625 C-3.57023823 11.75569706 -8.12938146 8.01678932 -14.625 5.8125 C-23.49767179 4.08280947 -31.86394085 7.81701588 -37.1875 15 Z " fill="#000047" transform="translate(410.625,92.1875)"/>
<path d="M0 0 C0.52980469 0.44988281 1.05960938 0.89976563 1.60546875 1.36328125 C1.93546875 -0.61671875 2.26546875 -2.59671875 2.60546875 -4.63671875 C6.23546875 -4.63671875 9.86546875 -4.63671875 13.60546875 -4.63671875 C13.60546875 15.82328125 13.60546875 36.28328125 13.60546875 57.36328125 C9.97546875 57.36328125 6.34546875 57.36328125 2.60546875 57.36328125 C2.27546875 55.71328125 1.94546875 54.06328125 1.60546875 52.36328125 C0.85523438 52.78480469 0.105 53.20632812 -0.66796875 53.640625 C-10.95217019 59.14539277 -19.11554109 60.77105496 -30.39453125 57.36328125 C-38.66563112 54.37192506 -44.20475944 49.04597682 -48.26953125 41.30078125 C-49.95585009 37.63511112 -51.12953687 34.42652838 -51.39453125 30.36328125 C-51.47703125 29.12578125 -51.55953125 27.88828125 -51.64453125 26.61328125 C-51.4581702 16.8479624 -47.42522789 9.46336681 -40.6953125 2.640625 C-29.5810684 -7.52453758 -12.55146646 -8.57922422 0 0 Z M-36.95703125 14.55078125 C-40.27187207 20.25495177 -41.26178564 25.55074083 -39.79296875 32.0078125 C-37.74094404 37.95868417 -34.7809731 42.04854781 -29.39453125 45.36328125 C-23.57360874 48.12156152 -17.27937843 48.51628817 -11.078125 46.67578125 C-4.80103474 43.81714432 -0.98976058 39.42417021 1.48046875 32.98828125 C3.18911411 27.21189493 2.56738356 22.81616401 0.35546875 17.17578125 C-3.29145566 11.31465274 -7.88549739 7.57212307 -14.39453125 5.36328125 C-23.26720304 3.63359072 -31.6334721 7.36779713 -36.95703125 14.55078125 Z " fill="#000047" transform="translate(625.39453125,92.63671875)"/>
<path d="M0 0 C7.57110507 -0.20910696 15.14190878 -0.36873047 22.71524906 -0.46630955 C26.23267604 -0.51316168 29.74811925 -0.57662553 33.2644043 -0.67895508 C37.31317434 -0.79603482 41.35988264 -0.8392203 45.41015625 -0.87890625 C47.29179222 -0.9485836 47.29179222 -0.9485836 49.21144104 -1.01966858 C57.78126908 -1.02460261 57.78126908 -1.02460261 61.31726074 1.94815063 C63.10734292 4.22286608 64.57816789 6.48262694 66 9 C66.75023437 10.0828125 67.50046875 11.165625 68.2734375 12.28125 C68.96695313 13.3434375 69.66046875 14.405625 70.375 15.5 C74.71381882 22.09181855 79.12397764 28.63373301 83.56256104 35.15869141 C84.65815727 36.76936232 85.75267752 38.38076497 86.84716797 39.9921875 C90.7496917 45.72858011 94.6961234 51.42277437 98.76098633 57.0456543 C100 59 100 59 100 61 C95.63613844 59.69468189 92.03995846 58.00251639 88.16796875 55.61328125 C87.05236572 54.92975586 85.9367627 54.24623047 84.78735352 53.54199219 C83.58738192 52.7988611 82.38743127 52.0556962 81.1875 51.3125 C79.30053799 50.15310958 77.41226779 48.99586937 75.52397156 47.83865356 C74.23781897 47.05020151 72.95210591 46.26103203 71.66682434 45.47116089 C65.49542215 41.68037138 59.2816128 37.96191072 53.0625 34.25 C44.54097325 29.1531623 36.06951816 23.98353477 27.64599609 18.72631836 C23.20989887 15.9635311 18.75216007 13.24778245 14.25 10.59375 C13.31776611 10.04291748 12.38553223 9.49208496 11.42504883 8.92456055 C9.63439629 7.87009887 7.84008608 6.82181786 6.04174805 5.78051758 C5.24808838 5.31282959 4.45442871 4.8451416 3.63671875 4.36328125 C2.93248779 3.95376221 2.22825684 3.54424316 1.50268555 3.12231445 C1.00679932 2.75195068 0.51091309 2.38158691 0 2 C0 1.34 0 0.68 0 0 Z " fill="#69A4D7" transform="translate(105,59)"/>
<path d="M0 0 C-1.24985848 3.38804613 -2.66110145 6.19454497 -4.765625 9.125 C-5.31895508 9.90335205 -5.87228516 10.6817041 -6.44238281 11.48364258 C-7.33715332 12.7292395 -7.33715332 12.7292395 -8.25 14 C-14.47798453 22.77925588 -20.50861573 31.6715502 -26.453125 40.64453125 C-27.03271973 41.46123291 -27.61231445 42.27793457 -28.20947266 43.11938477 C-29.66509143 45.46119632 -30.58095251 47.40410821 -31.55224609 49.94116211 C-33.55423529 54.56360304 -35.61050657 58.31243288 -40 61 C-49.33177463 63.390045 -59.41900507 62.48164645 -68.96392822 62.02996826 C-72.5762027 61.87540572 -76.1900471 61.8077869 -79.8046875 61.73242188 C-86.87364838 61.57241923 -93.93619701 61.31709888 -101 61 C-97.99397632 57.89878448 -95.18945121 55.76581885 -91.4140625 53.64453125 C-90.32625488 53.02723145 -89.23844727 52.40993164 -88.11767578 51.77392578 C-87.54760803 51.45393616 -86.97754028 51.13394653 -86.39019775 50.80426025 C-77.75255677 45.95128047 -69.2384603 40.98563421 -60.95703125 35.54296875 C-50.49384893 28.74118846 -39.69368124 22.43148592 -29 16 C-28.36088684 15.61537598 -27.72177368 15.23075195 -27.06329346 14.83447266 C-23.27110624 12.55323596 -19.47531155 10.27819098 -15.67440796 8.01150513 C-14.47892765 7.29796378 -13.28427906 6.58302703 -12.09048462 5.8666687 C-10.43530431 4.87423566 -8.77633797 3.88812511 -7.1171875 2.90234375 C-6.17472168 2.34023193 -5.23225586 1.77812012 -4.26123047 1.19897461 C-2 0 -2 0 0 0 Z " fill="#1D708B" transform="translate(205,120)"/>
<path d="M0 0 C6.94306269 4.77605089 11.92404976 10.77214929 14.60546875 18.81640625 C16.24608675 27.89665836 15.91089822 37.0682532 11 45 C10.649375 45.62261719 10.29875 46.24523437 9.9375 46.88671875 C5.64761527 53.75351341 -1.28858434 57.91763252 -9 60 C-20.69046301 61.11708869 -29.63068235 59.82297688 -38.8125 52.375 C-44.66070606 46.84766896 -48.53216756 39.63198279 -49.203125 31.5546875 C-49.39990947 20.30517525 -46.84175626 12.23302892 -39 4 C-28.4276595 -5.97531422 -12.48409517 -6.55599672 0 0 Z M-34.7734375 16.12109375 C-38.4570253 21.76378716 -38.88535473 27.4336191 -38 34 C-35.72383392 39.93429014 -31.18715186 44.44766141 -26 48 C-20.51694869 49.82768377 -14.06946365 50.16358753 -8.609375 48.09375 C-3.38419214 44.98257242 0.2502913 40.99950062 3.3125 35.75 C4.97900574 29.08397705 4.78506153 22.8478636 1.33203125 16.8203125 C-2.34165034 11.79997343 -6.82977222 8.23404556 -13 7 C-22.44852182 5.87181829 -28.75903688 8.880293 -34.7734375 16.12109375 Z " fill="#000047" transform="translate(340,91)"/>
<path d="M0 0 C17.16 0 34.32 0 52 0 C52 13.34952905 52 13.34952905 47.37670898 17.98266602 C46.71614502 18.58651123 46.05558105 19.19035645 45.375 19.8125 C43.99793213 21.17109924 42.62164923 22.53049451 41.24609375 23.890625 C40.18817627 24.90672852 40.18817627 24.90672852 39.10888672 25.94335938 C35.76463776 29.20475706 32.60714872 32.63266912 29.4375 36.0625 C28.8791748 36.65716064 28.32084961 37.25182129 27.74560547 37.86450195 C27.2095166 38.43644287 26.67342773 39.00838379 26.12109375 39.59765625 C25.6614624 40.08758057 25.20183105 40.57750488 24.72827148 41.08227539 C22.09494504 44.00426708 19.55988963 47.01346209 17 50 C28.55 50.33 40.1 50.66 52 51 C52 54.63 52 58.26 52 62 C34.84 62 17.68 62 0 62 C0 49.76328428 0 49.76328428 5.13085938 44.59765625 C5.85080078 43.92605469 6.57074219 43.25445312 7.3125 42.5625 C8.78841965 41.09571513 10.26367746 39.62826399 11.73828125 38.16015625 C12.46611816 37.45391113 13.19395508 36.74766602 13.94384766 36.02001953 C16.73801884 33.27495038 19.37761865 30.40803961 22 27.5 C22.78375 26.6440625 23.5675 25.788125 24.375 24.90625 C27.94041758 20.95882339 31.46608522 16.97565412 35 13 C23.45 12.67 11.9 12.34 0 12 C0 8.04 0 4.08 0 0 Z " fill="#000048" transform="translate(518,88)"/>
<path d="M0 0 C6.29655948 4.78701715 9.80328798 12.02249478 10.99609375 19.75 C11.12758262 22.68440742 11.11257036 25.61394279 11.09375 28.55078125 C11.09233505 29.38715622 11.0909201 30.22353119 11.08946228 31.08525085 C11.08388559 33.744371 11.0713374 36.4034055 11.05859375 39.0625 C11.05357574 40.87044149 11.04901336 42.6783843 11.04492188 44.48632812 C11.03392379 48.90758484 11.01667525 53.32877793 10.99609375 57.75 C7.03609375 57.75 3.07609375 57.75 -1.00390625 57.75 C-1.01325195 56.56970215 -1.02259766 55.3894043 -1.03222656 54.17333984 C-1.07221273 49.77843002 -1.1379954 45.38421387 -1.21142578 40.98974609 C-1.23958545 39.09074846 -1.26082483 37.1916347 -1.27490234 35.29248047 C-1.29640143 32.55636362 -1.34308633 29.82163548 -1.39453125 27.0859375 C-1.39575989 26.24195404 -1.39698853 25.39797058 -1.39825439 24.52841187 C-1.53139468 19.1242628 -2.49094686 16.08298497 -6.00390625 11.75 C-6.45765625 11.1725 -6.91140625 10.595 -7.37890625 10 C-11.12728516 7.11663161 -14.90107394 6.54954721 -19.50390625 6.875 C-23.82495875 7.50060693 -26.64658572 8.87229669 -30.00390625 11.75 C-34.03833889 17.31473467 -34.17834721 22.53484534 -34.3203125 29.234375 C-34.3410936 30.04996887 -34.36187469 30.86556274 -34.38328552 31.70587158 C-34.44851922 34.30383105 -34.50754393 36.90188913 -34.56640625 39.5 C-34.60961639 41.264333 -34.65323147 43.02865613 -34.69726562 44.79296875 C-34.8041737 49.11187884 -34.90551452 53.43088784 -35.00390625 57.75 C-38.63390625 57.75 -42.26390625 57.75 -46.00390625 57.75 C-46.00390625 37.29 -46.00390625 16.83 -46.00390625 -4.25 C-42.37390625 -4.25 -38.74390625 -4.25 -35.00390625 -4.25 C-35.00390625 -2.93 -35.00390625 -1.61 -35.00390625 -0.25 C-34.4728125 -0.52714844 -33.94171875 -0.80429688 -33.39453125 -1.08984375 C-32.33492187 -1.63318359 -32.33492187 -1.63318359 -31.25390625 -2.1875 C-30.5578125 -2.54714844 -29.86171875 -2.90679687 -29.14453125 -3.27734375 C-19.35329955 -7.72627932 -8.82595049 -5.50546619 0 0 Z " fill="#000047" transform="translate(694.00390625,92.25)"/>
<path d="M0 0 C5.17221023 3.81947832 8.15732068 9.96414953 10.1484375 15.9375 C10.23433053 17.33405459 10.26616465 18.73435777 10.26196289 20.13354492 C10.26188736 20.97418991 10.26181183 21.8148349 10.26173401 22.68095398 C10.25657272 23.58416885 10.25141144 24.48738373 10.24609375 25.41796875 C10.2446788 26.34595779 10.24326385 27.27394684 10.24180603 28.23005676 C10.23620687 31.19507058 10.22365454 34.16000899 10.2109375 37.125 C10.20592239 39.13476453 10.2013595 41.14453025 10.19726562 43.15429688 C10.18623771 48.08206032 10.16897367 53.00976737 10.1484375 57.9375 C6.5184375 57.9375 2.8884375 57.9375 -0.8515625 57.9375 C-0.86614502 56.78749512 -0.88072754 55.63749023 -0.89575195 54.45263672 C-0.95390012 50.16961195 -1.03113174 45.88710384 -1.11401367 41.60449219 C-1.14718546 39.75399181 -1.17524137 37.90339214 -1.19799805 36.05273438 C-1.231687 33.38628997 -1.2840091 30.7207491 -1.33984375 28.0546875 C-1.34623367 27.23257782 -1.3526236 26.41046814 -1.35920715 25.56344604 C-1.48418155 20.63651072 -2.15987327 17.21834694 -4.8515625 12.9375 C-8.44535936 9.53285035 -11.874267 6.98721365 -16.95703125 6.90234375 C-22.23433762 7.26477183 -25.79206173 8.35003421 -29.8515625 11.9375 C-33.67840598 17.45799807 -34.45095657 21.51580149 -34.4609375 28.15234375 C-34.47747375 29.00808487 -34.49401001 29.86382599 -34.51104736 30.74549866 C-34.55929508 33.45540713 -34.58084603 36.16475543 -34.6015625 38.875 C-34.6297417 40.72203304 -34.65967184 42.56904025 -34.69140625 44.41601562 C-34.76504745 48.92313091 -34.8147635 53.42993946 -34.8515625 57.9375 C-38.4815625 57.9375 -42.1115625 57.9375 -45.8515625 57.9375 C-45.8515625 37.4775 -45.8515625 17.0175 -45.8515625 -4.0625 C-42.2215625 -4.0625 -38.5915625 -4.0625 -34.8515625 -4.0625 C-34.8515625 -2.7425 -34.8515625 -1.4225 -34.8515625 -0.0625 C-34.32046875 -0.33964844 -33.789375 -0.61679688 -33.2421875 -0.90234375 C-32.18257813 -1.44568359 -32.18257813 -1.44568359 -31.1015625 -2 C-30.40546875 -2.35964844 -29.709375 -2.71929687 -28.9921875 -3.08984375 C-19.35569142 -7.46847062 -8.88052097 -5.09599515 0 0 Z " fill="#000047" transform="translate(478.8515625,92.0625)"/>
<path d="M0 0 C5.55289412 4.53409867 9.00145696 9.58151429 11.48828125 16.3046875 C11.48828125 16.9646875 11.48828125 17.6246875 11.48828125 18.3046875 C7.41330749 18.71413462 3.54877384 18.9174915 -0.51171875 18.3046875 C-2.36043541 16.7293726 -3.22241935 15.23822364 -4.39453125 13.125 C-6.32355802 9.98190044 -9.15029486 8.50984917 -12.51171875 7.3046875 C-20.59794663 5.38883285 -26.29964876 6.72000819 -33.26171875 10.9921875 C-37.61353347 15.46488596 -39.73210239 20.03742433 -40.01171875 26.3046875 C-39.7467552 32.05439657 -38.0214032 36.60247932 -34.0859375 40.83984375 C-28.74805159 45.57083824 -24.03996714 46.78933493 -17.0703125 46.61328125 C-12.98088122 46.12005213 -9.78950351 44.79896669 -6.51171875 42.3046875 C-5.56534251 41.07702721 -4.64873216 39.82590148 -3.76171875 38.5546875 C-1.70741041 35.86342881 -0.89585816 35.36146903 2.52734375 34.85546875 C5.54411396 34.8660663 8.48794727 34.99882821 11.48828125 35.3046875 C8.8725572 44.45972167 3.36183576 50.82746165 -4.76171875 55.63671875 C-13.24635482 59.58598192 -23.07396337 59.87410518 -31.88671875 56.7421875 C-40.86770653 52.53926219 -47.05607531 45.63402201 -50.62109375 36.4453125 C-53.22348646 27.26845398 -52.00643598 17.6592749 -47.51171875 9.3046875 C-42.46697686 1.84218913 -36.1471372 -2.63421058 -27.5625 -5.30078125 C-17.73280031 -7.19182824 -8.301447 -5.60315396 0 0 Z " fill="#000047" transform="translate(275.51171875,92.6953125)"/>
<path d="M0 0 C3.96 0 7.92 0 12 0 C12 5.28 12 10.56 12 16 C16.95 16 21.9 16 27 16 C27 19.96 27 23.92 27 28 C21.72 28 16.44 28 11 28 C11.0512078 32.30657623 11.1143414 36.60963294 11.20751953 40.91503906 C11.2356311 42.37748705 11.25689431 43.8400842 11.27099609 45.30273438 C11.29256419 47.41353169 11.33927656 49.52255429 11.390625 51.6328125 C11.41157227 52.90012207 11.43251953 54.16743164 11.45410156 55.47314453 C12.08922337 59.57644043 13.42026315 61.78347738 16 65 C18.29629994 66.14814997 20.07698086 66.30769809 22.625 66.5625 C24.06875 66.706875 25.5125 66.85125 27 67 C27 70.63 27 74.26 27 78 C18.53708151 78.42314592 12.74533767 78.17462891 6.24609375 72.45703125 C-1.01856704 64.80725591 -0.27765407 55.27767743 -0.1953125 45.3125 C-0.1924826 44.01425293 -0.18965271 42.71600586 -0.18673706 41.37841797 C-0.17915637 37.95237308 -0.15955685 34.52650188 -0.1373291 31.1005249 C-0.11674969 27.59438424 -0.10770966 24.0882151 -0.09765625 20.58203125 C-0.07630474 13.72127629 -0.04116905 6.8606644 0 0 Z " fill="#000048" transform="translate(712,72)"/>
<path d="M0 0 C3.63 0 7.26 0 11 0 C11 20.46 11 40.92 11 62 C7.37 62 3.74 62 0 62 C0 41.54 0 21.08 0 0 Z " fill="#000047" transform="translate(498,88)"/>
<path d="M0 0 C2.4970475 2.81924718 3 4.35724432 3 8.125 C2 11 2 11 -0.25 12.9375 C-3.4380089 14.16923071 -4.79970807 14.09483671 -8 13 C-11 11 -11 11 -11.875 8.1875 C-12.02330021 4.40584474 -11.34185609 2.92732011 -9 0 C-5.40997619 -1.1966746 -3.61734062 -1.05505768 0 0 Z " fill="#000046" transform="translate(508,67)"/>
<path d="M0 0 C2.52366824 2.84930286 3.02743228 4.31419292 2.875 8.125 C1.55319149 12.46808511 1.55319149 12.46808511 -1 14 C-4.4375 14.5 -4.4375 14.5 -8 14 C-10.5 11.9375 -10.5 11.9375 -12 9 C-12.0625 5.375 -12.0625 5.375 -11 2 C-7.39226569 -1.29849994 -4.57403022 -1.59096703 0 0 Z M-2 3 C-2 4.98 -2 6.96 -2 9 C-1.01 9.495 -1.01 9.495 0 10 C0.33 8.35 0.66 6.7 1 5 C0.01 4.34 -0.98 3.68 -2 3 Z M-9 4 C-9.6814823 5.89179203 -9.6814823 5.89179203 -10 8 C-9.34 8.66 -8.68 9.32 -8 10 C-8 8.02 -8 6.04 -8 4 C-8.33 4 -8.66 4 -9 4 Z M-6 8 C-6 9.32 -6 10.64 -6 12 C-4.68 11.67 -3.36 11.34 -2 11 C-2.66 11 -3.32 11 -4 11 C-4.33 10.01 -4.66 9.02 -5 8 C-5.33 8 -5.66 8 -6 8 Z " fill="#000046" transform="translate(749,67)"/>
</svg>
