<?xml version="1.0" encoding="UTF-8"?>
<svg version="1.1" xmlns="http://www.w3.org/2000/svg" width="2459" height="867">
<path d="M0 0 C7.19536934 6.46328897 12.71159339 13.38865666 17.68115234 21.67285156 C19.18295106 24.14715263 20.73412983 26.43294444 22.52099609 28.70410156 C23.32279297 27.98867187 24.12458984 27.27324219 24.95068359 26.53613281 C39.61561469 13.61326565 55.09251515 2.59086153 72.52099609 -6.29589844 C73.18228516 -6.63347168 73.84357422 -6.97104492 74.52490234 -7.31884766 C93.52041317 -16.87896207 114.20791309 -22.62254554 135.52099609 -23.29589844 C136.35630859 -23.33585937 137.19162109 -23.37582031 138.05224609 -23.41699219 C164.93254098 -24.12218511 193.26527518 -17.47686467 213.2253418 1.38769531 C237.27433912 24.88643574 245.16739124 56.86082515 245.61229336 89.63482547 C245.65953546 95.57573154 245.64965956 101.51657363 245.64125061 107.45761108 C245.64168719 109.75895818 245.6425637 112.06030523 245.64383978 114.36165202 C245.64606764 120.65790097 245.64208689 126.95413279 245.63706172 133.25037956 C245.63317793 139.3512566 245.63402319 145.45213138 245.63474356 151.5530093 C245.63605415 164.024695 245.63272864 176.49637538 245.62672615 188.96805954 C245.62080146 201.30983888 245.61695866 213.65161601 245.61587334 225.99339676 C245.6158046 226.76185687 245.61573586 227.53031697 245.61566503 228.32206375 C245.61532668 232.22496326 245.61502531 236.12786276 245.61473816 240.03076227 C245.61263986 267.64778833 245.60590841 295.2648115 245.59643555 322.88183594 C245.5872456 349.70507797 245.58016469 376.52831921 245.57592773 403.3515625 C245.57573045 404.592602 245.57573045 404.592602 245.57552917 405.858713 C245.57421061 414.16768527 245.5729348 422.47665756 245.57169031 430.78562984 C245.56915436 447.71073447 245.5663331 464.63583905 245.56333923 481.5609436 C245.56320194 482.3390679 245.56306465 483.11719219 245.5629232 483.91889601 C245.55372842 535.84729914 245.53765499 587.77570037 245.52099609 639.70410156 C215.82099609 639.70410156 186.12099609 639.70410156 155.52099609 639.70410156 C155.51219673 629.61512299 155.51219673 629.61512299 155.5032196 619.32232666 C155.46347932 574.89901843 155.42040765 530.47571717 155.36201477 486.0524292 C155.3610192 485.29423735 155.36002364 484.5360455 155.3589979 483.75487814 C155.33733869 467.27679844 155.31501595 450.7987197 155.29200981 434.32064183 C155.28073143 426.2396403 155.26959965 418.15863856 155.25854492 410.07763672 C155.25744236 409.27348562 155.25633979 408.46933451 155.25520381 407.64081519 C155.21954377 381.58222205 155.19356204 355.52363019 155.17260641 329.46502142 C155.15101821 302.68343698 155.11965169 275.90188134 155.07600496 249.12032333 C155.06984284 245.3364591 155.06379234 241.55259469 155.05780983 237.76873016 C155.05603851 236.65166661 155.05603851 236.65166661 155.0542314 235.51203612 C155.03551962 223.53071631 155.02709685 211.54941035 155.02253485 199.56807772 C155.01772697 187.51889165 155.00204819 175.46975837 154.97533043 163.42060062 C154.96115758 156.8936885 154.95214583 150.36684454 154.95598793 143.83991432 C154.95939996 137.86234527 154.94902254 131.88496328 154.92776058 125.90743253 C154.9224955 123.74707823 154.9222548 121.58670449 154.92760047 119.42635038 C154.96216594 103.87055137 154.7063992 89.43809445 144.20849609 76.95410156 C133.35764787 67.8696705 121.82128776 65.66607771 107.89355469 66.49267578 C82.39371069 68.76504303 58.20044432 80.50447492 38.04052734 95.90332031 C35.52099609 97.70410156 35.52099609 97.70410156 33.52099609 97.70410156 C33.52099609 276.56410156 33.52099609 455.42410156 33.52099609 639.70410156 C4.15099609 639.70410156 -25.21900391 639.70410156 -55.47900391 639.70410156 C-55.48487015 633.0201413 -55.49073639 626.33618103 -55.4967804 619.44967651 C-55.53652526 575.29815778 -55.57960274 531.14664606 -55.63798523 486.99514771 C-55.6389808 486.24146118 -55.63997636 485.48777466 -55.6410021 484.71124915 C-55.66266192 468.33060493 -55.68498471 451.94996168 -55.70799019 435.5693193 C-55.71926845 427.53595913 -55.73040026 419.50259876 -55.74145508 411.46923828 C-55.74255764 410.66983322 -55.74366021 409.87042817 -55.74479619 409.04679872 C-55.78044846 383.14769058 -55.80643426 357.24858375 -55.82739359 331.34945991 C-55.84898777 304.72907531 -55.88036134 278.10871965 -55.92399504 251.48836161 C-55.93015705 247.72622077 -55.93620757 243.96407976 -55.94219017 240.20193863 C-55.94396149 239.09130153 -55.94396149 239.09130153 -55.9457686 237.95822731 C-55.9644715 226.05168913 -55.97290156 214.14516489 -55.97746515 202.23861382 C-55.98227608 190.26108629 -55.9979688 178.28361181 -56.02466957 166.30611275 C-56.03867623 159.81945087 -56.04785841 153.33287698 -56.04401207 146.84619904 C-56.04059492 140.90306628 -56.05100685 134.96012124 -56.07223942 129.01702692 C-56.07749563 126.87144181 -56.07775455 124.72583714 -56.07239953 122.58025227 C-55.84088364 98.46143082 -55.84088364 98.46143082 -66.45166016 77.45410156 C-76.6296025 67.68902108 -88.17053603 66.30142348 -101.70947266 66.48925781 C-119.87777792 67.07486285 -136.72273069 74.18805116 -152.47900391 82.70410156 C-153.10758301 83.04376953 -153.73616211 83.3834375 -154.38378906 83.73339844 C-159.57491807 86.53843645 -159.57491807 86.53843645 -164.61626542 89.59600919 C-166.47900391 90.70410156 -166.47900391 90.70410156 -168.96240032 91.69255787 C-172.30498631 93.33773962 -174.16696931 94.75276246 -176.47900391 97.70410156 C-178.50284331 104.52128618 -177.80730044 112.09430536 -177.71951294 119.12229919 C-177.72800361 121.36400259 -177.74088329 123.60569295 -177.757779 125.84734875 C-177.79151297 132.01175311 -177.76287077 138.17454376 -177.72420311 144.33886135 C-177.69655173 150.30206039 -177.71584899 156.26505368 -177.73405772 162.22824775 C-177.76968019 174.42579174 -177.75883478 186.62288088 -177.7215004 198.82040215 C-177.68468708 210.897301 -177.66853062 222.97393659 -177.67995834 235.05088997 C-177.68065729 235.80180875 -177.68135624 236.55272752 -177.68207638 237.32640141 C-177.68573346 241.13994339 -177.68975958 244.95348487 -177.69392775 248.76702631 C-177.72278673 275.77795059 -177.70533664 302.78866622 -177.66064453 329.79956055 C-177.61733296 356.04014781 -177.5950027 382.28061588 -177.60107422 408.52124023 C-177.60125301 409.33009786 -177.60143181 410.13895548 -177.60161602 410.97232393 C-177.60343472 419.09520948 -177.60567993 427.21809485 -177.60823763 435.3409802 C-177.61343824 451.88821363 -177.61579211 468.43544706 -177.61642456 484.98268127 C-177.61645715 485.74349524 -177.61648974 486.50430921 -177.61652332 487.28817814 C-177.61837324 538.09352873 -177.55158241 588.89880976 -177.47900391 639.70410156 C-206.84900391 639.70410156 -236.21900391 639.70410156 -266.47900391 639.70410156 C-266.47900391 423.55410156 -266.47900391 207.40410156 -266.47900391 -15.29589844 C-237.10900391 -15.29589844 -207.73900391 -15.29589844 -177.47900391 -15.29589844 C-176.98400391 4.50410156 -176.98400391 4.50410156 -176.47900391 24.70410156 C-174.16900391 22.39410156 -171.85900391 20.08410156 -169.47900391 17.70410156 C-124.98304687 -21.70660325 -49.73162473 -43.57468868 0 0 Z " fill="#060606" transform="translate(1780.47900390625,39.2958984375)"/>
<path d="M0 0 C1.89842651 0.00845947 1.89842651 0.00845947 3.83520508 0.01708984 C30.7351576 0.36392015 56.5743354 7.9295035 76.75 26.3125 C77.45511719 26.93640625 78.16023438 27.5603125 78.88671875 28.203125 C100.73178792 48.63191267 111.28436553 82.32588103 112.86666963 111.46072917 C113.04908946 117.01082739 113.0281344 122.56206975 113.01742554 128.11448669 C113.02116969 129.97473953 113.02577424 131.83499079 113.03115618 133.6952396 C113.04330725 138.76854429 113.0431351 143.84178265 113.04076743 148.91509855 C113.04035725 154.40206296 113.05141762 159.88900668 113.06088257 165.3759613 C113.07745071 176.1122638 113.08299024 186.84854432 113.08410732 197.58485853 C113.08505989 206.31904258 113.08918059 215.05321943 113.09550858 223.7874012 C113.11024965 244.55874165 113.12255951 265.3300778 113.12151146 286.10142422 C113.12146472 287.09631025 113.12146472 287.09631025 113.12141704 288.11129499 C113.12125085 291.47236177 113.12105277 294.83342854 113.12084763 298.19449531 C113.12080774 298.86192021 113.12076785 299.5293451 113.12072675 300.216995 C113.12064587 301.56669003 113.12056228 302.91638506 113.12047596 304.26608009 C113.11925148 325.24764559 113.13424965 346.22914637 113.16162109 367.21069336 C113.19241844 390.82764319 113.20952365 414.44456202 113.20769465 438.06153542 C113.20703262 450.5493537 113.21244263 463.03709899 113.23405075 475.52490044 C113.25233602 486.15993617 113.25654996 496.79486582 113.2430319 507.42991053 C113.23653887 512.84660004 113.23625112 518.26308646 113.2537384 523.67975616 C113.38206046 566.08373482 113.38206046 566.08373482 108.75 585.3125 C108.56041678 586.10965483 108.37083356 586.90680965 108.1755054 587.72812068 C101.45541313 615.40340186 85.93687049 639.99932406 61.5234375 655.12890625 C46.30935868 664.13244448 27.69048364 669.40447783 10.0078125 669.515625 C9.28117401 669.52132507 8.55453552 669.52702515 7.80587769 669.53289795 C6.2713158 669.54229519 4.73673421 669.54886079 3.20214844 669.55273438 C0.91562941 669.5623295 -1.36994544 669.59335565 -3.65625 669.625 C-25.68800903 669.7837521 -46.72883919 664.47715689 -66.25 654.3125 C-67.23830811 653.80178955 -67.23830811 653.80178955 -68.24658203 653.28076172 C-82.77586701 645.68377271 -94.0333396 636.41855491 -106.25 625.3125 C-106.58 693.9525 -106.91 762.5925 -107.25 833.3125 C-136.62 833.3125 -165.99 833.3125 -196.25 833.3125 C-196.25 560.7325 -196.25 288.1525 -196.25 7.3125 C-166.88 7.3125 -137.51 7.3125 -107.25 7.3125 C-106.755 27.1125 -106.755 27.1125 -106.25 47.3125 C-101.96 43.0225 -97.67 38.7325 -93.25 34.3125 C-90.76491852 32.23402473 -88.44244255 30.33052594 -85.8125 28.5 C-84.88147461 27.83629395 -84.88147461 27.83629395 -83.93164062 27.15917969 C-77.61947325 22.73682534 -71.07678258 18.88952097 -64.25 15.3125 C-63.10402344 14.70664062 -61.95804688 14.10078125 -60.77734375 13.4765625 C-53.64607279 9.8555889 -46.36329263 7.23534564 -38.6875 5 C-37.8617749 4.75749512 -37.0360498 4.51499023 -36.18530273 4.26513672 C-24.27437692 0.97559636 -12.3215009 -0.05813204 0 0 Z M-98.25 113.3125 C-98.97303751 113.68883278 -99.69607502 114.06516557 -100.44102275 114.45290238 C-103.31131211 116.15861413 -105.17698077 117.6772563 -107.25 120.3125 C-108.63109798 125.9585443 -108.46662462 131.52686176 -108.39285278 137.3110199 C-108.40322522 139.07267605 -108.4175208 140.83431273 -108.43539798 142.5959087 C-108.4729856 147.43365063 -108.45439488 152.26979577 -108.42652202 157.10754359 C-108.40617321 162.32586486 -108.43758268 167.54390996 -108.46234131 172.76217651 C-108.50238595 182.98371307 -108.49370605 193.20465526 -108.46762754 203.42621522 C-108.44731052 211.73314296 -108.4445418 220.039904 -108.45434189 228.34684944 C-108.45572099 229.52867048 -108.45710008 230.71049152 -108.45852097 231.92812531 C-108.46139847 234.32890777 -108.46431639 236.72969018 -108.46727429 239.13047255 C-108.49294576 261.64928452 -108.46341915 284.1677669 -108.415071 306.68652482 C-108.37486551 326.01098961 -108.38184001 345.33496783 -108.42333984 364.65942383 C-108.47149936 387.09550158 -108.49046827 409.53129031 -108.46282947 431.96741253 C-108.45996251 434.35971991 -108.45713317 436.75202733 -108.45434189 439.14433479 C-108.45295341 440.32141927 -108.45156493 441.49850374 -108.45013437 442.71125744 C-108.44236186 451.00822794 -108.45548368 459.3050152 -108.47665787 467.60195732 C-108.50189523 477.71339925 -108.49508038 487.82421237 -108.44713117 497.93558221 C-108.42346995 503.09532787 -108.41422648 508.25402505 -108.44397354 513.41376305 C-108.4707953 518.13753283 -108.45605788 522.8592827 -108.40817557 527.58286918 C-108.3981226 529.2913844 -108.40323754 531.00007031 -108.42505766 532.70847576 C-108.74277658 541.85669724 -108.74277658 541.85669724 -105.29305816 550.04841244 C-103.04023207 552.08729212 -100.82780993 553.71449177 -98.25 555.3125 C-97.08016605 556.18896371 -95.91473583 557.0714074 -94.7578125 557.96484375 C-93.63779086 558.73766853 -92.50995736 559.49928141 -91.375 560.25 C-90.75061035 560.66330566 -90.1262207 561.07661133 -89.48291016 561.50244141 C-70.53640795 573.66282775 -49.87842882 580.69148771 -27.3125 580.625 C-26.22259766 580.64111328 -25.13269531 580.65722656 -24.00976562 580.67382812 C-9.99104002 580.68215773 1.48434132 577.19019359 12 567.75 C23.36924144 555.73634812 24.04965072 540.11799297 24.01069641 524.59391785 C24.01371935 522.88703361 24.01760955 521.18015073 24.02228898 519.47327024 C24.03255941 514.79649674 24.03038958 510.11979999 24.02610838 505.44302022 C24.02363942 500.39381357 24.03265746 495.34462531 24.04014587 490.29542542 C24.05289032 480.40855595 24.05468686 470.52171365 24.05234561 460.63483735 C24.05056195 452.59739391 24.05231314 444.55995871 24.05657005 436.52251625 C24.05746284 434.80604305 24.05746284 434.80604305 24.05837366 433.05489362 C24.05958542 430.7301382 24.06079955 428.40538278 24.06201603 426.08062736 C24.07289067 404.28239369 24.07072948 382.4841755 24.06463119 360.68594096 C24.05946256 340.75183281 24.07071619 320.81777354 24.08972941 300.88367506 C24.10910969 280.40750286 24.11736344 259.93135379 24.11360615 239.45517236 C24.11169434 227.96252701 24.11417973 216.46992325 24.12832069 204.97728539 C24.14023789 195.19303623 24.14163557 185.40885427 24.12953053 175.62460419 C24.12364416 170.63477976 24.12253578 165.64507822 24.13453293 160.65526199 C24.14539931 156.08251951 24.14227933 151.51000241 24.12827124 146.93727044 C24.1256264 145.28794263 24.12798414 143.6385971 24.13600711 141.98928668 C24.2082604 126.02050936 21.96450227 111.13901526 10.61328125 99.05859375 C-0.40966739 88.72891232 -16.1127486 86.8777806 -30.6171875 87.1015625 C-55.33879668 87.93905742 -78.99952045 98.14715128 -98.25 113.3125 Z " fill="#060606" transform="translate(991.25,16.6875)"/>
<path d="M0 0 C3.4548284 0.01610301 6.90848752 0.00003078 10.36328125 -0.01904297 C50.55927352 -0.05743404 90.11055191 8.12375867 119.45703125 37.39111328 C147.16720396 67.06548451 153.99133611 108.3309355 153.8177948 147.46127319 C153.81910665 149.69940412 153.82174002 151.93753459 153.8255623 154.17566264 C153.83220467 160.26006418 153.82036172 166.3443044 153.80522811 172.42868543 C153.79352481 178.33617608 153.79611712 184.24365664 153.79827364 190.15115472 C153.80219452 202.21831819 153.79227088 214.28543199 153.77422142 226.35258102 C153.75641833 238.28583397 153.74491313 250.21906618 153.74166298 262.15233231 C153.74145676 262.8966746 153.74125054 263.6410169 153.74103807 264.40791502 C153.74002295 268.18866207 153.73911885 271.96940915 153.73825745 275.75015624 C153.73197049 302.46984477 153.71179845 329.18950633 153.68334961 355.90917969 C153.65575868 381.85318865 153.63452632 407.79719022 153.62182617 433.74121094 C153.6212343 434.94257369 153.6212343 434.94257369 153.62063048 436.16820641 C153.61667463 444.21188388 153.61284723 452.2555614 153.6091139 460.29923898 C153.601507 476.68245406 153.59304325 493.06566867 153.58406067 509.44888306 C153.5836488 510.20201572 153.58323693 510.95514838 153.58281258 511.73110324 C153.55525033 561.95111858 153.50703046 612.17111588 153.45703125 662.39111328 C124.08703125 662.39111328 94.71703125 662.39111328 64.45703125 662.39111328 C64.12703125 649.52111328 63.79703125 636.65111328 63.45703125 623.39111328 C60.48703125 626.36111328 57.51703125 629.33111328 54.45703125 632.39111328 C51.77405202 634.63637037 49.121191 636.79368638 46.33203125 638.89111328 C45.60121338 639.44299316 44.87039551 639.99487305 44.11743164 640.56347656 C12.56047145 664.03074569 -25.15387947 673.58644205 -64.29125977 668.61962891 C-88.36260317 664.94252106 -111.13954027 654.5264937 -126.02734375 634.61523438 C-132.76671675 625.11063974 -137.37750693 614.79373868 -140.85546875 603.70361328 C-141.08588867 602.98810303 -141.31630859 602.27259277 -141.55371094 601.53540039 C-147.5340769 581.02344769 -146.99499892 559.67727217 -146.94594526 538.54161429 C-146.93822676 534.16069763 -146.94542781 529.77979763 -146.95010376 525.39888 C-146.95552821 518.04542605 -146.94845938 510.69206311 -146.93408203 503.33862305 C-146.91778029 494.90493919 -146.92303953 486.47147331 -146.93956125 478.03779477 C-146.95329347 470.7283332 -146.95503865 463.41893623 -146.94724524 456.1094659 C-146.94263007 451.77404368 -146.94176925 447.43872293 -146.95185471 443.10330772 C-147.03228866 402.98428595 -145.06545362 360.55522403 -115.3984375 330.19189453 C-108.03013466 322.9647083 -100.46215683 317.07575887 -91.60546875 311.82861328 C-90.92226562 311.41796631 -90.2390625 311.00731934 -89.53515625 310.58422852 C-73.47945139 301.42146509 -55.59400643 295.41095476 -38.23046875 289.26611328 C-36.11449399 288.51153013 -33.99877893 287.75621842 -31.88330078 287.00024414 C-27.29248519 285.36035062 -22.70053894 283.72367547 -18.10791016 282.08886719 C-6.19501834 277.84473104 5.70387567 273.56151965 17.6042223 269.28236389 C21.88839364 267.74190405 26.17298137 266.20261089 30.45801449 264.66454983 C33.14804167 263.69896211 35.83791268 262.73293982 38.52776146 261.76685524 C40.37501551 261.10355348 42.222455 260.44076821 44.06990051 259.77799988 C45.19103745 259.37519302 46.31217438 258.97238617 47.46728516 258.55737305 C48.50524231 258.18484406 49.54319946 257.81231506 50.61260986 257.42849731 C53.116131 256.51544242 55.60027375 255.56433434 58.08349609 254.59790039 C61.45703125 253.39111328 61.45703125 253.39111328 64.45703125 253.39111328 C64.39627401 237.98673202 64.31861897 222.5825028 64.22131634 207.1783123 C64.17651436 200.0244889 64.13706464 192.87071355 64.1105957 185.71679688 C64.08748831 179.47520799 64.05395068 173.23377319 64.00832969 166.99230683 C63.98456736 163.69311974 63.96728531 160.39411341 63.95941734 157.09484482 C64.03872405 126.46652729 64.03872405 126.46652729 49.45703125 100.39111328 C35.95284607 87.25690578 17.3438713 86.04310619 -0.5300293 86.15649414 C-17.12172276 86.48281604 -32.88872242 88.81467342 -45.54296875 100.39111328 C-57.30600106 113.77210914 -59.63894841 130.44267331 -59.74829102 147.5925293 C-59.75819061 148.56920059 -59.76809021 149.54587189 -59.77828979 150.55213928 C-59.80963669 153.74974218 -59.83455514 156.94735989 -59.859375 160.14501953 C-59.87996774 162.37418483 -59.90096479 164.60334642 -59.92234802 166.83250427 C-59.97732924 172.67673734 -60.02684337 178.52100424 -60.07519531 184.36529541 C-60.13445828 191.38974934 -60.20055346 198.41414195 -60.2654953 205.43854523 C-60.36320311 216.08936354 -60.45226539 226.74022265 -60.54296875 237.39111328 C-89.25296875 237.39111328 -117.96296875 237.39111328 -147.54296875 237.39111328 C-147.62318637 213.93637289 -147.62318637 213.93637289 -147.640625 203.77587891 C-147.65248368 196.89962598 -147.66636015 190.02342734 -147.69384766 183.1472168 C-147.71591642 177.59043225 -147.72760735 172.03370609 -147.73272324 166.47688103 C-147.73635903 164.37909974 -147.74345389 162.28132087 -147.75442886 160.18356514 C-147.85287963 140.54670827 -147.45153138 120.52020093 -143.23046875 101.26611328 C-143.01173096 100.23099609 -142.79299316 99.19587891 -142.56762695 98.12939453 C-138.17840533 78.01042387 -130.51923607 59.46850498 -117.54296875 43.39111328 C-117.12176758 42.86678711 -116.70056641 42.34246094 -116.26660156 41.80224609 C-94.27511533 14.97229689 -60.21079915 4.24235999 -26.82147217 0.67474365 C-17.90047323 -0.09703112 -8.94763524 -0.04939946 0 0 Z M56.46435547 339.25195312 C54.93402176 339.86422256 54.93402176 339.86422256 53.37277222 340.48886108 C52.26362457 340.93871368 51.15447693 341.38856628 50.01171875 341.85205078 C48.85447296 342.31664703 47.69722717 342.78124329 46.50491333 343.25991821 C43.40587762 344.50512655 40.30869894 345.75475169 37.21234131 347.0065918 C34.16250004 348.2385269 31.11045444 349.4649724 28.05859375 350.69189453 C23.23605606 352.63107764 18.41511155 354.57415494 13.5949707 356.51928711 C8.85914292 358.42831329 4.11816604 360.32356327 -0.62817383 362.20629883 C-1.75589203 362.65433868 -2.88361023 363.10237854 -4.04550171 363.56399536 C-6.15640804 364.40181522 -8.26825783 365.23726383 -10.3812561 366.0697937 C-28.15694091 373.1315784 -44.31296462 382.05556035 -52.29296875 400.32861328 C-56.98178858 412.30614343 -57.69033414 424.28407993 -57.70410156 437.04443359 C-57.70906647 438.16457352 -57.71403137 439.28471344 -57.71914673 440.438797 C-57.7336579 444.11561718 -57.74055132 447.79239426 -57.74609375 451.46923828 C-57.74892113 452.73340324 -57.7517485 453.99756821 -57.75466156 455.3000412 C-57.76807376 461.30147966 -57.77798406 467.30289564 -57.78186345 473.30434632 C-57.78633898 480.18601416 -57.80387965 487.06748288 -57.83286405 493.94909024 C-57.8572386 499.9483805 -57.86481501 505.94757779 -57.866539 511.9469223 C-57.86954862 514.48083328 -57.87751933 517.01474377 -57.89072418 519.54862213 C-57.9794483 537.87972512 -57.92897735 553.93190051 -47.35546875 569.64111328 C-38.13465313 578.65702188 -27.00178294 581.44184881 -14.35546875 581.76611328 C10.90724646 581.16771735 33.35784913 571.81540011 54.45703125 558.39111328 C55.66699548 557.89536505 55.66699548 557.89536505 56.90140343 557.38960171 C60.20827686 555.73050288 62.13121601 554.29579325 64.45703125 551.39111328 C66.42803881 544.89354865 65.71728975 537.65634839 65.59228516 530.9519043 C65.58946331 528.84252558 65.59104991 526.73313705 65.59671021 524.62376404 C65.59957816 518.90449024 65.54081155 513.18731595 65.47097063 507.46852994 C65.40843381 501.48954 65.40258153 495.51050127 65.39071655 489.53123474 C65.35964195 478.21206073 65.27759007 466.89385318 65.17722166 455.57510465 C65.06542603 442.68777894 65.01045987 429.80040693 64.96026731 416.91271698 C64.85575667 390.40498005 64.67987808 363.89810083 64.45703125 337.39111328 C61.2113506 337.39111328 59.45663506 338.04613223 56.46435547 339.25195312 Z " fill="#060606" transform="translate(1303.54296875,16.60888671875)"/>
<path d="M0 0 C24.44735125 23.7114778 36.22261847 59.25206368 37.42742932 92.81429887 C37.4606554 95.50442716 37.46456587 98.19288894 37.45619202 100.88320923 C37.45747365 102.41510708 37.45747365 102.41510708 37.45878118 103.97795236 C37.46041837 107.37415449 37.45494363 110.77030639 37.44946289 114.16650391 C37.44918061 116.6112976 37.44933955 119.05609137 37.4499054 121.50088501 C37.45013256 126.75109969 37.44731008 132.00130317 37.44166756 137.25151443 C37.43351492 144.84228945 37.43093349 152.43305846 37.42967957 160.02383737 C37.42749495 172.34157859 37.42085089 184.65931317 37.41137695 196.97705078 C37.40218755 208.93733691 37.39512568 220.89762122 37.39086914 232.85791016 C37.39060114 233.60357093 37.39033315 234.34923171 37.39005703 235.11748827 C37.38774395 241.60441609 37.38559126 248.09134398 37.38345432 254.57827187 C37.37405717 282.47406251 37.35413304 310.3698355 37.3359375 338.265625 C-32.9540625 338.265625 -103.2440625 338.265625 -175.6640625 338.265625 C-175.5609375 364.68625 -175.4578125 391.106875 -175.3515625 418.328125 C-175.32666748 426.649104 -175.30177246 434.97008301 -175.27612305 443.54321289 C-175.23952892 451.0473659 -175.23952892 451.0473659 -175.1990509 458.55149841 C-175.18122249 461.87585345 -175.17153179 465.20012168 -175.16694641 468.52452087 C-175.16079947 472.78208368 -175.14027188 477.03936215 -175.10990107 481.29681861 C-175.10117563 482.84863028 -175.09724691 484.40047932 -175.09902322 485.9523145 C-175.10908226 498.57266442 -174.32566408 511.47876774 -168.2890625 522.828125 C-167.72445312 523.92253906 -167.15984375 525.01695312 -166.578125 526.14453125 C-159.74602218 537.28504176 -150.48452736 542.22871357 -138.12109375 545.5390625 C-117.02410831 549.9730052 -88.25870667 550.54111659 -69.3046875 538.8046875 C-58.49039074 531.07500559 -52.98258917 520.00553263 -50.58447266 507.14941406 C-49.17762298 498.31394489 -49.30588643 489.42411547 -49.25 480.5 C-49.23302622 478.8243727 -49.21520538 477.14875377 -49.1965332 475.47314453 C-49.13382237 469.32073371 -49.08739048 463.16816561 -49.0390625 457.015625 C-48.9153125 443.238125 -48.7915625 429.460625 -48.6640625 415.265625 C-20.2840625 415.265625 8.0959375 415.265625 37.3359375 415.265625 C37.45626393 438.09199405 37.45626393 438.09199405 37.48242188 447.9609375 C37.50022751 454.64655872 37.52109173 461.33205457 37.56225586 468.01757812 C37.59529678 473.41874421 37.61288284 478.81977551 37.62056923 484.221035 C37.62603372 486.26269523 37.63669901 488.30434964 37.65312767 490.34595108 C37.79322635 508.50929039 36.42738621 526.55536296 31.5859375 544.140625 C31.20405273 545.5622998 31.20405273 545.5622998 30.81445312 547.01269531 C28.4415977 555.50154249 25.25434176 563.38398349 21.3359375 571.265625 C20.86542969 572.24402344 20.39492188 573.22242188 19.91015625 574.23046875 C6.75265702 600.06364329 -16.67805203 617.75492224 -43.69140625 627.0546875 C-61.77662739 632.91718045 -80.29133895 635.38852605 -99.26953125 635.46875 C-100.351241 635.47445007 -101.43295074 635.48015015 -102.54743958 635.48602295 C-104.8290613 635.49541373 -107.11069623 635.50198316 -109.39233398 635.50585938 C-112.79762073 635.51547272 -116.20227856 635.54651587 -119.60742188 635.578125 C-160.92246991 635.77681086 -201.05098071 627.73791611 -231.8515625 598.515625 C-259.33342966 569.79063623 -265.83989494 531.09538701 -265.79777527 492.80561829 C-265.79964729 491.1753823 -265.80194954 489.54514676 -265.80464059 487.91491193 C-265.81071716 483.46804945 -265.81062991 479.02120589 -265.80944622 474.57434022 C-265.80924114 469.76488928 -265.81477125 464.95544424 -265.81950378 460.14599609 C-265.82778922 450.73357836 -265.83055771 441.32116688 -265.83111616 431.9087458 C-265.83159253 424.2486182 -265.8336533 416.58849266 -265.83681679 408.92836571 C-265.84561929 387.16787905 -265.85023705 365.40739731 -265.84948631 343.64690886 C-265.84944636 342.47525266 -265.8494064 341.30359647 -265.84936523 340.09643555 C-265.84932435 338.92333307 -265.84928347 337.7502306 -265.84924135 336.54157957 C-265.84883548 317.5580742 -265.85839129 298.57458873 -265.8725036 279.59108911 C-265.88690937 260.05715623 -265.89377141 240.52323302 -265.89290982 220.98929471 C-265.8925792 210.03953441 -265.89526673 199.08979493 -265.90608788 188.14003944 C-265.91524856 178.81121111 -265.91732303 169.48241304 -265.91057845 160.15358213 C-265.90734048 155.40504978 -265.90715627 150.65657528 -265.9159317 145.90804863 C-265.96340467 118.43627855 -265.76217979 91.20521931 -259.6640625 64.265625 C-259.4686084 63.40163086 -259.2731543 62.53763672 -259.07177734 61.64746094 C-254.54218974 42.42819409 -246.73932963 23.2727334 -233.6640625 8.265625 C-232.95894531 7.41355469 -232.25382812 6.56148437 -231.52734375 5.68359375 C-210.20792794 -19.2337127 -178.67402912 -30.78066563 -146.6640625 -33.734375 C-145.48328125 -33.84523438 -144.3025 -33.95609375 -143.0859375 -34.0703125 C-93.36738467 -37.79417172 -38.40412111 -35.61770223 0 0 Z M-165.03515625 69.1640625 C-175.99000344 83.29765432 -176.82521248 100.49361928 -176.77758789 117.59790039 C-176.77730534 119.02778115 -176.77746507 120.45766205 -176.7780304 121.88754272 C-176.77831574 125.74433769 -176.77246167 129.60110116 -176.76545644 133.45788884 C-176.75917897 137.49775737 -176.75861564 141.53762673 -176.75743103 145.57749939 C-176.75433062 153.21643073 -176.74613471 160.85534764 -176.73608154 168.49427265 C-176.72278323 178.82462851 -176.71741007 189.15498834 -176.71157932 199.48535061 C-176.70219389 215.74545286 -176.68226637 232.00552469 -176.6640625 248.265625 C-135.4140625 248.265625 -94.1640625 248.265625 -51.6640625 248.265625 C-51.57658817 222.12501353 -51.57658817 222.12501353 -51.51757812 195.984375 C-51.49981156 185.31668751 -51.47898166 174.64907136 -51.43774414 163.98144531 C-51.40771892 156.21055437 -51.38845853 148.43972159 -51.38179702 140.66877425 C-51.37790685 136.55912229 -51.36884903 132.44963663 -51.34687233 128.3400383 C-51.3262991 124.460947 -51.3202701 120.5820883 -51.32473946 116.70294762 C-51.32392346 115.28976484 -51.31808308 113.87657314 -51.30644608 112.46343803 C-51.16930638 94.92923705 -54.09428147 78.18275749 -66.6640625 65.265625 C-90.89958504 44.24542884 -142.79893339 45.74121985 -165.03515625 69.1640625 Z " fill="#060606" transform="translate(700.6640625,50.734375)"/>
<path d="M0 0 C1.11718773 0.95088544 2.23342273 1.90289029 3.34925842 2.85536194 C3.97096452 3.3853885 4.59267061 3.91541506 5.23321629 4.46150303 C7.43957368 6.38277621 9.50702536 8.41092752 11.55859375 10.49609375 C12.35716797 11.30240234 13.15574219 12.10871094 13.97851562 12.93945312 C15.61396331 14.60088092 17.24938013 16.26233911 18.88476562 17.92382812 C19.68462891 18.73142578 20.48449219 19.53902344 21.30859375 20.37109375 C22.37291626 21.4528186 22.37291626 21.4528186 23.45874023 22.55639648 C25.3921965 24.41555334 27.33456694 26.14347113 29.37562561 27.87562561 C35.36964345 33.10980833 40.92033418 38.79719102 46.53125 44.43359375 C47.78029381 45.68455981 49.02956776 46.93529611 50.27905273 48.18582153 C52.95627553 50.86619075 55.6319403 53.54810198 58.30639648 56.23123169 C62.5406844 60.47911008 66.77884478 64.72311083 71.01757812 68.96655273 C80.77888172 78.73986888 90.53515381 88.51820271 100.29138184 98.29658508 C109.23766294 107.26307724 118.18501712 116.22849168 127.13643646 125.18985462 C131.34468444 129.40306673 135.55048622 133.61870067 139.75439453 137.83624268 C142.37537871 140.46471763 144.99846131 143.09109089 147.62210083 145.71691513 C148.83228233 146.92895907 150.04160394 148.14186231 151.24996948 149.35571671 C159.19614532 157.33682981 167.14723713 165.0099374 176.23242188 171.70654297 C201.06156326 190.36395696 227.95238314 211.9116989 233.02315903 244.1896553 C236.49032699 270.42249349 237.13685303 303.71735218 220.82911682 325.97544861 C210.98459667 338.56780926 198.54653632 348.29791831 185.42492676 357.27532959 C178.0804286 362.49892598 171.85259092 369.02174167 165.53125 375.40625 C164.65150513 376.28978149 163.77176025 377.17331299 162.86535645 378.08361816 C160.07445494 380.88665133 157.28670768 383.69279916 154.5 386.5 C150.82601262 390.2010055 147.14834398 393.89831822 143.46875 397.59375 C142.63831177 398.43248657 141.80787354 399.27122314 140.95227051 400.13537598 C137.39769654 403.70472988 133.83455765 407.20183226 130.01367188 410.48632812 C125.20335 414.62349761 120.77495431 419.11909803 116.3125 423.625 C115.41055908 424.53072754 114.50861816 425.43645508 113.5793457 426.36962891 C110.71711436 429.24399569 107.85804198 432.1214694 105 435 C101.23225667 438.79475338 97.46084455 442.58581381 93.6875 446.375 C92.83518799 447.23561035 91.98287598 448.0962207 91.10473633 448.98291016 C86.8739697 453.23083589 82.57170392 457.29124059 78.02636719 461.19848633 C74.02369346 464.75700794 70.29810183 468.60175706 66.53125 472.40625 C65.65150513 473.28978149 64.77176025 474.17331299 63.86535645 475.08361816 C61.07445494 477.88665133 58.28670768 480.69279916 55.5 483.5 C51.82601262 487.2010055 48.14834398 490.89831822 44.46875 494.59375 C43.63831177 495.43248657 42.80787354 496.27122314 41.95227051 497.13537598 C37.71504622 501.39021866 33.40107696 505.46223507 28.84823608 509.37661743 C25.95842762 511.91485631 23.26357498 514.63123493 20.56640625 517.37109375 C19.72129738 518.22188255 19.72129738 518.22188255 18.8591156 519.08985901 C17.09107556 520.86994671 15.32638656 522.65329719 13.5625 524.4375 C11.21247389 526.81403372 8.85919893 529.18728084 6.50390625 531.55859375 C5.96544571 532.10535263 5.42698517 532.65211151 4.87220764 533.21543884 C3.60025004 534.49589058 2.3027327 535.75087218 1 537 C0.67 537 0.34 537 0 537 C-0.21059094 520.85765873 -0.36911775 504.71576551 -0.46630955 488.57238102 C-0.51264482 481.0760248 -0.57577083 473.58052387 -0.67895508 466.0847168 C-0.76888759 459.5484438 -0.82677661 453.01279038 -0.84679645 446.47591585 C-0.85849337 443.0168502 -0.88581652 439.55955634 -0.95157051 436.10106087 C-1.02451885 432.23249179 -1.02589495 428.36562828 -1.02172852 424.49633789 C-1.07026474 422.79161064 -1.07026474 422.79161064 -1.11978149 421.05244446 C-1.04654158 414.75291748 -0.18318501 411.49302472 4.31141663 406.94041443 C5.84817771 405.5964994 7.41039493 404.28097539 9 403 C10.34899214 401.82202455 11.69582483 400.64156428 13.0390625 399.45703125 C13.69165039 398.89580566 14.34423828 398.33458008 15.01660156 397.75634766 C18.62617138 394.55998561 21.98660109 391.1148939 25.375 387.6875 C26.14376465 386.91494873 26.9125293 386.14239746 27.70458984 385.34643555 C30.13885765 382.90005818 32.56984106 380.4504586 35 378 C38.20536178 374.76786312 41.41414073 371.53917465 44.625 368.3125 C45.706604 367.21844849 45.706604 367.21844849 46.81005859 366.10229492 C50.11062968 362.78602142 53.44112157 359.5683686 56.98632812 356.51367188 C61.40324768 352.70596396 65.49481744 348.61346579 69.59375 344.46875 C70.38471069 343.67400269 71.17567139 342.87925537 71.99060059 342.0604248 C74.49619523 339.54271568 76.99850858 337.02178554 79.5 334.5 C82.7991168 331.17411811 86.10164374 327.85167664 89.40625 324.53125 C90.52066467 323.40438782 90.52066467 323.40438782 91.65759277 322.25476074 C95.63996344 318.253975 99.72012272 314.46128032 103.99563599 310.77728271 C107.64125423 307.54468911 111.04848251 304.07342279 114.48046875 300.6171875 C115.25634842 299.83989288 116.03222809 299.06259827 116.83161926 298.26174927 C119.28596156 295.80186104 121.73679082 293.33850725 124.1875 290.875 C125.84286545 289.21461092 127.4984624 287.55445259 129.15429688 285.89453125 C132.18917782 282.85152169 135.22274378 279.80721513 138.25463867 276.76123047 C141.16571685 273.83675309 144.08060768 270.91617673 147 268 C143.01974213 263.99482718 139.03606133 259.99310045 135.04931641 255.99438477 C133.69650645 254.63657873 132.34459934 253.27787249 130.99365234 251.91821289 C129.03986592 249.95215212 127.08274126 247.98946555 125.125 246.02734375 C124.53195068 245.42913315 123.93890137 244.83092255 123.32788086 244.21458435 C116.61694437 237.50277392 109.3951138 231.47482745 102.02379036 225.50436592 C85.71283783 212.25670054 69.94940795 198.42853982 54.5 184.1875 C53.85168307 183.59141528 53.20336615 182.99533056 52.53540325 182.38118267 C20.73843058 153.08114806 -5.69257309 126.17931147 -7.61137176 81.17033011 C-7.89986333 72.12901406 -7.50304623 63.14370519 -6.875 54.125 C-6.80549448 53.10137714 -6.80549448 53.10137714 -6.73458481 52.05707502 C-5.52165376 34.54598635 -3.28048973 17.24613839 0 0 Z " fill="#060606" transform="translate(2137,84)"/>
<path d="M0 0 C3.96825333 17.53812519 6.51635989 35.14322796 7.9375 53.0625 C7.99212654 53.73352894 8.04675308 54.40455789 8.10303497 55.09592104 C10.90923108 90.64773997 5.47572722 119.18588172 -17.92520982 146.91440791 C-31.94578374 163.15245274 -47.30600751 178.08729701 -63 192.6875 C-63.75094767 193.38765559 -64.50189534 194.08781117 -65.275599 194.8091836 C-84.45342419 212.66986947 -104.12889591 229.89561127 -124.24642944 246.68663597 C-130.23570358 251.71841964 -136.0143183 256.86085674 -141.5 262.4375 C-142.304375 263.24864258 -142.304375 263.24864258 -143.125 264.07617188 C-144.41904036 265.38176617 -145.70988174 266.69052996 -147 268 C-146.00577026 268.99314209 -146.00577026 268.99314209 -144.99145508 270.00634766 C-142.09042173 272.90731745 -139.19648176 275.8153198 -136.30241394 278.72323608 C-133.23966729 281.79942653 -130.17421961 284.87291951 -127.10864258 287.94628906 C-125.49901479 289.56094845 -123.8902853 291.17650385 -122.2824707 292.79296875 C-119.94462444 295.14303498 -117.60348336 297.48977652 -115.26171875 299.8359375 C-114.55311203 300.54970551 -113.84450531 301.26347351 -113.11442566 301.99887085 C-109.18505681 305.92867361 -105.14938503 309.65201383 -100.94221497 313.28140259 C-97.73013499 316.12365869 -94.72996083 319.16668903 -91.71875 322.21875 C-91.06096558 322.88032104 -90.40318115 323.54189209 -89.72546387 324.22351074 C-86.94933442 327.01578144 -84.17928463 329.81405416 -81.40869141 332.61181641 C-79.3683292 334.67040898 -77.32485669 336.72587903 -75.28125 338.78125 C-74.66954956 339.40124878 -74.05784912 340.02124756 -73.4276123 340.66003418 C-70.38178581 343.72279226 -67.28332101 346.66263017 -64.01367188 349.48632812 C-59.98974422 352.96311619 -56.23441117 356.65417678 -52.5 360.4375 C-51.82001953 361.12126709 -51.14003906 361.80503418 -50.43945312 362.50952148 C-47.56774857 365.39737773 -44.70211562 368.29123075 -41.8359375 371.18457031 C-39.72607213 373.31265725 -37.61310355 375.43762917 -35.5 377.5625 C-34.86642578 378.20437256 -34.23285156 378.84624512 -33.58007812 379.50756836 C-30.60541654 382.49822694 -27.59111063 385.41026617 -24.41619873 388.18841553 C-23.71854149 388.79999763 -23.02088425 389.41157974 -22.30208588 390.04169464 C-20.72957727 391.37937368 -19.13082255 392.6866459 -17.51084137 393.96642303 C-0.33623283 407.59679339 -0.33623283 407.59679339 1.75646973 418.6126709 C2.47807461 425.50432783 2.32692291 432.3554506 2.02787876 439.26901531 C1.90073504 442.71806762 1.89094584 446.16767953 1.86737061 449.61871338 C1.80579672 456.12019091 1.64257188 462.61474517 1.44038081 469.11320519 C1.21490631 476.52487378 1.10640253 483.93691745 1.00647211 491.35117483 C0.79877593 506.57127376 0.44824453 521.78493698 0 537 C-7.41982038 530.70988414 -7.41982038 530.70988414 -10.32983398 527.76782227 C-10.88408554 527.21026749 -11.4383371 526.65271271 -12.00938416 526.07826233 C-12.58249832 525.49684982 -13.15561249 524.91543732 -13.74609375 524.31640625 C-14.66830467 523.3885154 -14.66830467 523.3885154 -15.60914612 522.44187927 C-18.20692186 519.82795177 -20.79864894 517.20805816 -23.39086914 514.58862305 C-25.29881303 512.66242362 -27.20988624 510.73936667 -29.12109375 508.81640625 C-29.97772865 507.94732384 -29.97772865 507.94732384 -30.85166931 507.0606842 C-33.75102729 504.14414438 -36.70506891 501.35635676 -39.82446289 498.67553711 C-44.68095241 494.47503401 -49.1711933 489.93527868 -53.6875 485.375 C-54.58944092 484.46927246 -55.49138184 483.56354492 -56.4206543 482.63037109 C-59.76605444 479.27078694 -63.10688392 475.90668738 -66.4473877 472.54223633 C-69.732918 469.23365649 -73.02233791 465.92897519 -76.3125 462.625 C-77.16481201 461.76438965 -78.01712402 460.9037793 -78.89526367 460.01708984 C-83.1260303 455.76916411 -87.42829608 451.70875941 -91.97363281 447.80151367 C-95.97630654 444.24299206 -99.70189817 440.39824294 -103.46875 436.59375 C-104.34849487 435.71021851 -105.22823975 434.82668701 -106.13464355 433.91638184 C-109.39656945 430.6402768 -112.65392564 427.3596502 -115.91094971 424.07867432 C-119.1148726 420.85169462 -122.32269116 417.6286192 -125.53125 414.40625 C-126.36168823 413.56751343 -127.19212646 412.72877686 -128.04772949 411.86462402 C-131.60681441 408.29074042 -135.17507533 404.78960147 -139 401.5 C-143.72770784 397.43396577 -148.08348095 393.02283983 -152.46875 388.59375 C-153.34849487 387.71021851 -154.22823975 386.82668701 -155.13464355 385.91638184 C-158.39656945 382.6402768 -161.65392564 379.3596502 -164.91094971 376.07867432 C-168.1148726 372.85169462 -171.32269116 369.6286192 -174.53125 366.40625 C-175.36168823 365.56751343 -176.19212646 364.72877686 -177.04772949 363.86462402 C-183.69439972 357.19031691 -190.08904484 350.9732886 -198.24131775 346.19337463 C-211.98915985 337.84269412 -224.04208856 326.26935879 -228.3616333 310.37957764 C-234.86582988 283.03902291 -238.35859459 241.8415502 -223.15978718 216.87820339 C-211.12692401 198.87167596 -193.51465726 184.72103594 -176.01208496 172.27947998 C-167.45722238 165.8053472 -160.02058068 158.1525402 -152.46875 150.56640625 C-151.21970619 149.31544019 -149.97043224 148.06470389 -148.72094727 146.81417847 C-146.04372447 144.13380925 -143.3680597 141.45189802 -140.69360352 138.76876831 C-136.4593156 134.52088992 -132.22115522 130.27688917 -127.98242188 126.03344727 C-118.98530955 117.02526282 -109.99243415 108.01285408 -101 99 C-91.28997699 89.26792757 -81.57921999 79.53659438 -71.86356354 69.81014538 C-67.65531556 65.59693327 -63.44951378 61.38129933 -59.24560547 57.16375732 C-56.62462129 54.53528237 -54.00153869 51.90890911 -51.37789917 49.28308487 C-50.16771767 48.07104093 -48.95839606 46.85813769 -47.75003052 45.64428329 C-42.19614567 40.06597946 -36.6629023 34.51114682 -30.64759731 29.4227438 C-27.65408768 26.83776916 -24.90371327 24.00674977 -22.12890625 21.19140625 C-21.21720924 20.27402931 -21.21720924 20.27402931 -20.28709412 19.33811951 C-18.37640496 17.41536534 -16.46905374 15.48935422 -14.5625 13.5625 C-12.02497078 10.99846917 -9.48419833 8.43771659 -6.94140625 5.87890625 C-6.35919815 5.28839981 -5.77699005 4.69789337 -5.17713928 4.0894928 C-1.11275583 0 -1.11275583 0 0 0 Z " fill="#060606" transform="translate(323,84)"/>
</svg>
